<?xml version="1.0" standalone="no"?>
<!DOCTYPE svg PUBLIC "-//W3C//DTD SVG 20010904//EN"
 "http://www.w3.org/TR/2001/REC-SVG-20010904/DTD/svg10.dtd">
<svg version="1.0" xmlns="http://www.w3.org/2000/svg"
 width="500.000000pt" height="500.000000pt" viewBox="0 0 500.000000 500.000000"
 preserveAspectRatio="xMidYMid meet">
<metadata>
Created by potrace 1.14, written by Peter Selinger 2001-2017
</metadata>
<g transform="translate(0.000000,500.000000) scale(0.100000,-0.100000)"
fill="#000000" stroke="none">
<path d="M2405 3952 c-198 -192 -424 -310 -704 -369 -110 -23 -150 -26 -321
-27 -168 0 -282 9 -378 30 l-24 5 7 -153 c21 -486 95 -885 226 -1216 18 -46
29 -91 29 -122 l0 -50 -296 0 c-177 0 -294 -4 -292 -9 2 -5 51 -64 110 -130
60 -66 108 -123 108 -126 0 -3 -46 -58 -103 -121 -56 -63 -103 -119 -105 -124
-2 -6 121 -10 332 -10 l336 0 0 55 0 55 99 0 99 0 72 -84 c232 -275 515 -474
823 -581 l68 -24 72 25 c153 55 339 159 502 283 80 60 253 229 322 313 l55 68
110 0 110 0 -4 -55 -5 -55 339 0 c186 0 338 2 338 5 0 3 -47 59 -105 125 -58
65 -105 122 -105 127 0 4 49 64 109 133 l110 125 -289 3 -288 2 -4 58 c-3 49
3 75 44 185 126 338 191 693 213 1160 6 132 6 139 -12 133 -111 -33 -507 -41
-658 -13 -302 56 -574 196 -775 401 -35 36 -67 66 -70 66 -3 0 -45 -40 -95
-88z m587 -676 c35 -35 35 -49 -1 -206 -15 -69 -27 -128 -25 -131 2 -3 49 -9
105 -13 164 -11 181 -38 62 -96 -65 -31 -73 -38 -73 -63 0 -16 -4 -26 -10 -22
-5 3 -10 17 -10 31 0 21 -4 24 -40 24 -22 0 -40 -4 -40 -9 0 -17 31 -41 53
-42 12 0 -18 -9 -68 -19 -113 -23 -169 -42 -269 -91 -44 -21 -82 -37 -84 -35
-5 5 110 69 171 95 26 11 47 22 47 25 0 5 -70 -14 -141 -39 -23 -8 -44 -13
-47 -10 -5 5 86 48 138 66 19 7 16 8 -14 3 -21 -3 -63 -16 -94 -30 -99 -44
-88 -16 13 32 30 13 42 23 30 23 -11 0 -40 -8 -64 -19 -56 -26 -66 -18 -15 12
l39 23 -79 12 c-43 6 -81 15 -85 19 -3 4 7 4 22 2 19 -4 30 -1 34 8 7 20 40
17 48 -3 6 -17 7 -17 16 0 13 23 35 22 52 -4 11 -14 17 -17 22 -9 4 7 3 15 -3
19 -6 3 82 6 196 6 181 0 211 2 237 18 21 12 23 16 8 12 -75 -20 -308 -36
-292 -20 3 2 49 9 103 15 54 6 107 15 119 20 31 12 7 12 -71 -1 -46 -8 -81 -8
-112 -1 l-45 10 60 1 c66 1 117 21 55 21 -46 0 -562 38 -620 45 -25 3 -67 11
-95 17 l-50 12 35 7 35 6 -40 3 c-39 2 -39 3 -10 10 25 6 26 8 7 9 -13 0 -21
5 -18 10 3 5 -16 14 -42 21 -26 7 -58 16 -72 21 -21 7 -19 8 10 4 27 -4 30 -3
15 4 -11 5 -31 10 -45 11 l-25 2 25 7 c22 7 20 9 -20 16 -36 6 -41 9 -25 16
16 6 13 8 -14 8 l-34 1 23 -25 c29 -31 15 -33 -17 -3 -66 62 23 67 131 8 40
-22 76 -40 79 -40 4 0 7 19 7 43 0 31 3 38 10 27 9 -14 15 -7 11 14 -1 5 5 6
14 3 10 -4 15 -1 15 11 0 12 3 13 8 5 5 -8 12 -2 21 18 8 20 17 27 23 21 6 -6
-7 -36 -37 -81 -25 -40 -43 -76 -40 -81 3 -4 29 -24 57 -43 64 -42 137 -56
170 -33 40 28 216 16 241 -17 9 -12 41 -17 138 -23 l126 -7 16 66 c21 84 21
90 -4 47 -15 -26 -18 -29 -13 -10 3 14 13 40 20 59 18 43 11 52 -10 14 l-16
-28 6 29 c5 19 3 27 -4 22 -5 -3 -2 17 9 44 24 64 24 72 -6 120 -14 22 -25 43
-25 47 0 7 38 -25 82 -71z m377 -463 c60 -34 121 -82 121 -94 0 -6 -16 2 -35
17 -33 25 -37 26 -54 10 -19 -17 -46 -22 -36 -7 3 5 1 13 -5 16 -6 4 -9 1 -8
-6 2 -6 -3 -14 -11 -17 -9 -3 -11 0 -6 8 4 7 -6 5 -25 -5 -43 -22 -49 -13 -8
14 44 28 31 27 -29 -3 -26 -14 -73 -27 -103 -30 l-55 -6 70 21 c39 11 75 25
80 31 7 8 3 9 -15 3 -45 -13 -147 -18 -130 -6 8 6 29 11 45 11 36 1 104 30
124 53 18 23 26 22 80 -10z m-983 -4 c69 -12 84 -23 55 -38 -25 -14 -27 -38
-4 -63 9 -10 11 -18 5 -18 -6 0 -19 11 -28 25 -10 16 -26 25 -43 25 -14 0 -32
4 -40 9 -10 7 -2 12 30 18 l44 9 -77 12 c-86 13 -135 4 -124 -24 3 -8 2 -12
-4 -9 -19 12 -11 44 13 49 12 3 31 7 42 9 37 8 71 7 131 -4z m525 -130 c-90
-40 -126 -57 -541 -262 -300 -148 -435 -210 -461 -211 -26 0 -47 8 -79 34 -53
42 -38 51 24 15 l45 -26 378 184 c520 253 522 254 583 271 78 21 104 18 51 -5z
m-1041 -639 c11 -11 20 -31 20 -45 0 -20 -5 -25 -24 -25 -16 0 -26 7 -29 21
-7 28 -41 21 -45 -9 -2 -15 8 -34 33 -59 54 -54 65 -74 65 -115 0 -51 -28 -78
-78 -78 -45 0 -69 21 -78 67 -5 27 -3 31 21 35 17 4 28 1 31 -8 2 -8 6 -21 9
-29 8 -26 35 -17 35 11 0 17 -16 44 -45 76 -25 28 -46 60 -47 72 -3 41 4 71
19 89 23 24 87 23 113 -3z m101 -42 l1 -63 29 63 29 62 59 0 c58 0 60 -1 70
-32 5 -18 13 -48 16 -67 9 -41 17 -30 35 47 11 48 14 52 41 52 18 0 27 -4 24
-12 -31 -91 -65 -231 -65 -269 0 -46 -2 -49 -25 -49 -23 0 -25 3 -25 48 0 45
-53 247 -69 265 -4 4 -22 -24 -41 -62 l-33 -69 18 -44 c9 -23 26 -65 36 -91
l19 -48 -31 3 c-28 3 -34 9 -53 61 -12 32 -25 55 -29 51 -4 -4 -7 -31 -7 -61
0 -52 0 -53 -30 -53 l-30 0 0 165 0 165 30 0 30 0 1 -62z m539 37 c0 -23 -4
-25 -45 -25 l-45 0 0 -50 0 -50 35 0 c31 0 35 -3 35 -25 0 -22 -4 -25 -35 -25
l-35 0 0 -65 c0 -62 -1 -65 -25 -65 l-24 0 -3 165 -3 165 73 0 c70 0 72 -1 72
-25z m72 -112 c3 -130 4 -138 23 -138 19 0 20 8 23 138 l3 137 24 0 25 0 0
-145 c0 -132 -2 -147 -20 -165 -28 -28 -90 -27 -116 1 -16 18 -19 40 -22 165
l-3 144 30 0 30 0 3 -137z m278 112 c0 -20 -5 -25 -25 -25 l-25 0 0 -140 0
-140 -30 0 -30 0 0 140 0 140 -25 0 c-20 0 -25 5 -25 25 0 25 1 25 80 25 79 0
80 0 80 -25z m70 -102 c0 -132 7 -160 34 -150 14 5 16 27 16 142 l0 135 28 0
27 0 -3 -147 c-2 -118 -6 -151 -19 -165 -23 -25 -87 -24 -113 2 -18 18 -20 33
-20 165 l0 145 25 0 25 0 0 -127z m272 110 c21 -18 25 -101 7 -134 -7 -13 -7
-25 -1 -32 5 -7 12 -42 14 -79 l4 -68 -28 0 c-27 0 -28 2 -28 46 0 51 -14 84
-35 84 -12 0 -15 -15 -15 -65 l0 -65 -30 0 -30 0 0 165 0 165 62 0 c43 0 67
-5 80 -17z m196 -5 c-2 -19 -10 -24 -45 -26 l-43 -3 0 -45 c0 -44 0 -44 35
-44 31 0 35 -3 35 -25 0 -22 -4 -25 -35 -25 -35 0 -35 0 -35 -44 l0 -45 43 -3
c35 -2 43 -7 45 -25 3 -22 0 -23 -72 -23 l-76 0 0 165 0 165 76 0 c72 0 75 -1
72 -22z"/>
<path d="M2945 3159 c-4 -6 -5 -12 -2 -15 2 -3 7 2 10 11 7 17 1 20 -8 4z"/>
<path d="M2466 2981 c-6 -8 63 -21 115 -21 49 0 32 17 -23 24 -71 8 -86 8 -92
-3z"/>
<path d="M2638 2963 c7 -3 16 -2 19 1 4 3 -2 6 -13 5 -11 0 -14 -3 -6 -6z"/>
<path d="M2560 2820 c0 -5 5 -10 10 -10 6 0 10 5 10 10 0 6 -4 10 -10 10 -5 0
-10 -4 -10 -10z"/>
<path d="M2630 2810 c0 -5 5 -10 10 -10 6 0 10 5 10 10 0 6 -4 10 -10 10 -5 0
-10 -4 -10 -10z"/>
<path d="M2705 2810 c-9 -15 -1 -23 21 -18 15 3 16 4 1 16 -11 9 -17 10 -22 2z"/>
<path d="M2756 2805 c4 -8 10 -15 15 -15 5 0 9 7 9 15 0 8 -7 15 -15 15 -9 0
-12 -6 -9 -15z"/>
<path d="M2860 2790 c6 -11 13 -20 15 -20 3 0 5 9 5 20 0 11 -7 20 -15 20 -13
0 -14 -4 -5 -20z"/>
<path d="M2800 2790 c0 -5 9 -10 21 -10 11 0 17 5 14 10 -3 6 -13 10 -21 10
-8 0 -14 -4 -14 -10z"/>
<path d="M2907 2784 c-11 -11 3 -24 25 -24 17 0 18 2 8 15 -13 16 -23 19 -33
9z"/>
<path d="M2363 2753 c9 -2 23 -2 30 0 6 3 -1 5 -18 5 -16 0 -22 -2 -12 -5z"/>
<path d="M3120 1959 c0 -43 3 -50 17 -47 11 2 20 16 23 33 8 42 1 65 -21 65
-16 0 -19 -8 -19 -51z"/>
</g>
</svg>
